<svg width="50" height="50" viewBox="0 0 50 50" fill="none" xmlns="http://www.w3.org/2000/svg">
<path d="M49.25 25C49.25 36.8022 40.8226 46.6337 29.6562 48.8043V32.9766H34.7314H35.3752L35.4728 32.3403L36.5812 25.1137L36.7136 24.25H35.8398H29.6562V20.3125C29.6562 19.4324 29.8727 18.6555 30.3455 18.108C30.8005 17.581 31.5889 17.1562 32.9785 17.1562H36.1328H36.8828V16.4062V10.2539V9.62105L36.259 9.51459L36.1328 10.2539C36.259 9.51459 36.2589 9.51458 36.2588 9.51457L36.2586 9.51453L36.258 9.51443L36.256 9.51408L36.2488 9.51288L36.2224 9.50847C36.1995 9.50468 36.166 9.49922 36.1228 9.49232C36.0365 9.47852 35.911 9.45897 35.7522 9.43561C35.4349 9.38889 34.9839 9.32679 34.4464 9.26472C33.3745 9.14094 31.9442 9.01562 30.5371 9.01562C27.5291 9.01562 24.9602 9.92984 23.1425 11.7496C21.324 13.5702 20.3438 16.2103 20.3438 19.4922V24.25H14.7461H13.9961V25V32.2266V32.9766H14.7461H20.3438V48.8043C9.17738 46.6337 0.75 36.8022 0.75 25C0.75 11.6056 11.6056 0.75 25 0.75C38.3944 0.75 49.25 11.6056 49.25 25Z" fill="#030303" stroke="white" stroke-width="1.5"/>
<path d="M21.0938 31.4766H15.4961V25.75H21.0938H21.8438V25V19.4922C21.8438 16.5095 22.7288 14.2863 24.2037 12.8097C25.6794 11.3324 27.8322 10.5156 30.5371 10.5156C31.8644 10.5156 33.2319 10.6344 34.2743 10.7548C34.7133 10.8055 35.0921 10.8562 35.3828 10.8977V15.6562H32.9785C31.2627 15.6562 30.0149 16.1958 29.2102 17.1276C28.4232 18.0389 28.1562 19.215 28.1562 20.3125V25V25.75H28.9062H34.966L34.0877 31.4766H28.9062H28.1562V32.2266V49.0472C27.1228 49.1815 26.0699 49.25 25 49.25C23.9301 49.25 22.8772 49.1815 21.8438 49.0472V32.2266V31.4766H21.0938Z" fill="#030303" stroke="white" stroke-width="1.5"/>
</svg>
