<svg width="80" height="80" viewBox="0 0 80 80" fill="none" xmlns="http://www.w3.org/2000/svg">
<path d="M0 40C0 17.9086 17.9086 0 40 0C62.0914 0 80 17.9086 80 40C80 62.0914 62.0914 80 40 80C17.9086 80 0 62.0914 0 40Z" fill="white"/>
<mask id="mask0" mask-type="alpha" maskUnits="userSpaceOnUse" x="0" y="0" width="80" height="80">
<path fill-rule="evenodd" clip-rule="evenodd" d="M0 40C0 17.9086 17.9086 0 40 0C62.0914 0 80 17.9086 80 40C80 62.0914 62.0914 80 40 80C17.9086 80 0 62.0914 0 40Z" fill="white"/>
</mask>
<g mask="url(#mask0)">
<path fill-rule="evenodd" clip-rule="evenodd" d="M39.9987 18.6667C34.2079 18.6667 33.4806 18.6921 31.2055 18.7956C28.9344 18.8996 27.3841 19.2592 26.0277 19.7867C24.6245 20.3316 23.4343 21.0605 22.2485 22.2468C21.0618 23.4325 20.3329 24.6228 19.7863 26.0255C19.2574 27.3824 18.8974 28.933 18.7951 31.2033C18.6934 33.4789 18.6667 34.2064 18.6667 40.0003C18.6667 45.7941 18.6925 46.519 18.7956 48.7946C18.9 51.0657 19.2596 52.616 19.7867 53.9724C20.332 55.3755 21.0609 56.5658 22.2472 57.7516C23.4325 58.9382 24.6227 59.6689 26.025 60.2138C27.3823 60.7414 28.933 61.1009 31.2037 61.2049C33.4793 61.3085 34.206 61.3338 39.9994 61.3338C45.7936 61.3338 46.5185 61.3085 48.7941 61.2049C51.0653 61.1009 52.6173 60.7414 53.9746 60.2138C55.3773 59.6689 56.5658 58.9382 57.7511 57.7516C58.9378 56.5658 59.6667 55.3755 60.2133 53.9729C60.7378 52.616 61.0978 51.0653 61.2045 48.795C61.3067 46.5195 61.3334 45.7941 61.3334 40.0003C61.3334 34.2064 61.3067 33.4793 61.2045 31.2037C61.0978 28.9326 60.7378 27.3824 60.2133 26.0259C59.6667 24.6228 58.9378 23.4325 57.7511 22.2468C56.5644 21.0601 55.3777 20.3312 53.9733 19.7867C52.6133 19.2592 51.0621 18.8996 48.791 18.7956C46.5159 18.6921 45.7913 18.6667 39.9987 18.6667ZM38.0882 22.5112C38.4598 22.5106 38.8596 22.5108 39.291 22.511L40.002 22.5112C45.6981 22.5112 46.3732 22.5317 48.6226 22.6339C50.7026 22.729 51.8315 23.0766 52.5835 23.3686C53.5791 23.7552 54.2888 24.2175 55.0351 24.9641C55.7817 25.7108 56.244 26.4219 56.6315 27.4175C56.9235 28.1686 57.2715 29.2975 57.3662 31.3775C57.4684 33.6264 57.4906 34.302 57.4906 39.9954C57.4906 45.6888 57.4684 46.3644 57.3662 48.6133C57.2711 50.6933 56.9235 51.8222 56.6315 52.5733C56.2449 53.5689 55.7817 54.2778 55.0351 55.024C54.2884 55.7707 53.5795 56.2329 52.5835 56.6196C51.8324 56.9129 50.7026 57.2596 48.6226 57.3547C46.3736 57.4569 45.6981 57.4791 40.002 57.4791C34.3055 57.4791 33.6304 57.4569 31.3815 57.3547C29.3015 57.2587 28.1726 56.9111 27.4201 56.6191C26.4246 56.2325 25.7134 55.7702 24.9668 55.0236C24.2201 54.2769 23.7579 53.5675 23.3703 52.5715C23.0783 51.8204 22.7303 50.6915 22.6356 48.6115C22.5334 46.3626 22.513 45.687 22.513 39.9901C22.513 34.2931 22.5334 33.6211 22.6356 31.3722C22.7308 29.2922 23.0783 28.1633 23.3703 27.4113C23.757 26.4157 24.2201 25.7046 24.9668 24.9579C25.7134 24.2112 26.4246 23.749 27.4201 23.3615C28.1721 23.0681 29.3015 22.7215 31.3815 22.6259C33.3495 22.537 34.1122 22.5103 38.0882 22.5059V22.5112ZM48.8297 28.6126C48.8297 27.1988 49.9764 26.0535 51.3897 26.0535V26.0526C52.803 26.0526 53.9497 27.1993 53.9497 28.6126C53.9497 30.0259 52.803 31.1726 51.3897 31.1726C49.9764 31.1726 48.8297 30.0259 48.8297 28.6126ZM40.0016 29.0446C33.9515 29.0449 29.0463 33.9502 29.0463 40.0003C29.0463 46.0506 33.9517 50.9538 40.002 50.9538C46.0523 50.9538 50.9559 46.0506 50.9559 40.0003C50.9559 33.95 46.0519 29.0446 40.0016 29.0446ZM47.1132 40.0003C47.1132 36.0727 43.9292 32.8891 40.002 32.8891C36.0745 32.8891 32.8909 36.0727 32.8909 40.0003C32.8909 43.9274 36.0745 47.1115 40.002 47.1115C43.9292 47.1115 47.1132 43.9274 47.1132 40.0003Z" fill="black"/>
</g>
</svg>
