<svg width="50" height="50" viewBox="0 0 50 50" fill="none" xmlns="http://www.w3.org/2000/svg">
<rect width="50" height="50" fill="white"/>
<path d="M25 49.7951C38.8071 49.7951 50 38.6481 50 24.8975C50 11.147 38.8071 0 25 0C11.1929 0 0 11.147 0 24.8975C0 38.6481 11.1929 49.7951 25 49.7951Z" fill="white"/>
<path d="M25 0C11.1934 0 0 11.1475 0 24.8975C0 35.4508 6.58436 44.4672 15.8848 48.0943C15.6584 46.1271 15.4732 43.0943 15.9671 40.9426C16.4198 38.9959 18.8889 28.5656 18.8889 28.5656C18.8889 28.5656 18.1481 27.0697 18.1481 24.8771C18.1481 21.4139 20.1646 18.832 22.6749 18.832C24.8148 18.832 25.8436 20.4303 25.8436 22.3361C25.8436 24.4672 24.4856 27.6639 23.7654 30.6352C23.1687 33.1148 25.0206 35.1434 27.4691 35.1434C31.9136 35.1434 35.3292 30.4713 35.3292 23.75C35.3292 17.7869 31.0288 13.6271 24.8765 13.6271C17.7572 13.6271 13.5802 18.9344 13.5802 24.4262C13.5802 26.5574 14.4033 28.8525 15.4321 30.1025C15.6379 30.3484 15.6584 30.5738 15.5967 30.8197C15.4115 31.5984 14.9794 33.2992 14.8971 33.6475C14.7942 34.0984 14.5267 34.2008 14.0535 33.9754C10.9259 32.5205 8.97119 27.9918 8.97119 24.3238C8.97119 16.4754 14.6914 9.2623 25.4938 9.2623C34.1564 9.2623 40.9053 15.4098 40.9053 23.6475C40.9053 32.2336 35.4732 39.1393 27.9424 39.1393C25.4115 39.1393 23.0247 37.8279 22.2222 36.2705C22.2222 36.2705 20.9671 41.0246 20.6584 42.1926C20.1029 44.3648 18.5802 47.0697 17.5514 48.7295C19.8971 49.4467 22.3663 49.8361 24.9588 49.8361C38.7654 49.8361 49.9588 38.6885 49.9588 24.9385C50 11.1475 38.8066 0 25 0Z" fill="black"/>
</svg>
